<?xml version="1.0" encoding="UTF-8" ?>
<!DOCTYPE svg PUBLIC "-//W3C//DTD SVG 1.1//EN" "http://www.w3.org/Graphics/SVG/1.1/DTD/svg11.dtd">
<svg width="1949pt" height="502pt" viewBox="0 0 1949 502" version="1.1" xmlns="http://www.w3.org/2000/svg">
<g id="#000000ff">
<path fill="#000000" opacity="1.00" d=" M 1633.28 1.92 C 1640.20 -0.05 1644.69 6.89 1649.06 10.98 C 1678.31 38.83 1698.31 76.12 1705.57 115.82 C 1709.27 135.96 1709.30 156.58 1708.06 176.97 C 1705.92 214.28 1696.86 252.24 1675.70 283.56 C 1663.96 301.52 1648.04 316.61 1629.80 327.85 C 1616.05 336.49 1600.78 342.34 1585.39 347.32 C 1566.42 353.47 1546.86 357.75 1527.14 360.59 C 1516.14 361.99 1505.11 363.60 1494.00 363.42 C 1353.34 363.68 1212.67 363.43 1072.02 363.52 C 1067.37 363.83 1062.71 363.61 1058.11 362.94 C 1058.05 309.39 1058.08 255.84 1058.11 202.29 C 1074.72 202.48 1091.35 203.23 1107.98 203.00 C 1145.66 203.57 1183.34 204.05 1221.03 204.05 C 1273.37 205.32 1325.73 204.67 1378.07 205.35 C 1410.04 205.67 1442.01 205.82 1473.99 205.72 C 1508.02 205.41 1542.19 206.30 1576.06 202.60 C 1586.93 201.12 1597.99 200.04 1608.38 196.30 C 1616.30 193.40 1624.69 189.28 1629.17 181.85 C 1628.57 176.30 1624.38 172.03 1621.32 167.63 C 1608.23 152.54 1592.71 139.64 1575.97 128.78 C 1573.65 127.18 1570.81 126.04 1569.34 123.50 C 1567.42 120.86 1567.31 117.02 1569.11 114.30 C 1589.17 78.35 1609.43 42.51 1629.51 6.58 C 1630.44 4.80 1631.91 3.38 1633.28 1.92 Z" />
<path fill="#000000" opacity="1.00" d=" M 1794.90 82.79 C 1815.40 68.66 1843.04 66.96 1865.88 76.19 C 1877.57 80.76 1887.67 88.69 1895.95 98.03 C 1909.88 113.57 1918.89 132.81 1925.70 152.37 C 1939.99 193.44 1945.09 236.95 1948.43 280.07 C 1949.32 288.34 1948.81 296.67 1948.43 304.95 C 1948.11 329.75 1945.90 354.47 1942.92 379.08 C 1940.27 399.53 1936.18 419.79 1930.40 439.59 C 1924.21 461.25 1916.14 482.49 1904.78 502.00 L 1669.18 502.00 C 1672.70 498.91 1677.35 497.60 1681.36 495.26 C 1711.65 479.86 1740.82 462.38 1769.96 444.91 C 1800.01 427.05 1829.88 408.41 1856.15 385.19 C 1863.00 378.26 1871.03 371.13 1873.16 361.19 C 1854.76 360.87 1836.31 360.66 1817.98 358.91 C 1807.57 357.73 1797.06 356.86 1786.90 354.18 C 1768.67 349.58 1752.36 337.44 1743.15 320.99 C 1733.85 304.63 1731.07 285.49 1730.87 266.93 C 1730.27 254.23 1731.18 241.52 1732.56 228.91 C 1734.81 207.64 1739.07 186.57 1745.42 166.13 C 1751.11 147.46 1757.77 128.86 1768.14 112.21 C 1775.20 100.93 1784.03 90.56 1794.90 82.79 M 1795.49 193.42 C 1793.85 195.42 1793.05 198.18 1790.63 199.42 C 1791.13 201.12 1790.72 204.03 1788.28 203.44 C 1788.53 203.65 1789.02 204.07 1789.26 204.29 C 1786.15 212.48 1787.09 221.34 1789.41 229.59 L 1790.21 229.35 C 1790.06 230.42 1789.50 231.49 1789.63 232.57 C 1791.42 233.51 1792.07 235.50 1792.91 237.22 C 1799.15 250.35 1812.93 258.75 1827.03 260.79 C 1847.80 262.57 1868.00 246.45 1872.20 226.29 C 1872.66 226.21 1873.60 226.04 1874.07 225.95 C 1873.65 225.91 1872.80 225.82 1872.37 225.77 C 1874.41 216.66 1871.94 207.26 1868.05 198.99 C 1859.93 182.80 1840.97 171.91 1822.84 175.25 C 1811.82 177.48 1802.01 184.34 1795.49 193.42 Z" />
<path fill="#000000" opacity="1.00" d=" M 1587.38 384.41 C 1591.01 382.97 1594.68 385.30 1597.24 387.73 C 1612.93 403.37 1628.58 419.05 1644.26 434.69 C 1646.09 436.56 1648.39 438.23 1648.98 440.96 C 1648.19 443.30 1647.03 445.54 1645.21 447.26 C 1629.16 463.49 1612.86 479.49 1596.92 495.84 C 1594.83 498.36 1590.87 497.26 1588.80 495.29 C 1571.53 478.88 1554.72 461.98 1537.21 445.82 C 1533.26 442.80 1534.54 436.71 1537.65 433.54 C 1549.80 420.71 1562.07 407.99 1574.25 395.19 C 1578.35 391.32 1581.62 385.95 1587.38 384.41 Z" />
</g>
<g id="#ffffffff">
</g>
<g id="#d2201eff">
<path fill="#d2201e" opacity="1.00" d=" M 190.82 21.79 C 192.45 20.17 194.76 19.25 197.06 19.30 C 199.99 20.25 201.92 22.78 204.12 24.77 C 220.29 39.95 236.31 55.30 252.15 70.82 C 254.83 72.84 252.76 76.16 250.98 78.02 C 235.18 94.26 218.64 109.79 203.41 126.58 C 216.88 142.66 231.24 158.10 247.64 171.24 C 265.67 186.61 289.08 196.03 312.93 195.42 C 388.30 195.25 463.68 195.39 539.05 195.34 C 549.04 195.27 559.03 195.56 569.00 195.02 C 579.52 194.10 590.56 191.83 598.82 184.81 C 605.45 179.33 607.67 170.38 608.24 162.16 C 609.86 142.84 614.22 123.24 624.52 106.57 C 634.29 90.25 647.72 75.53 664.98 67.06 C 680.42 59.26 697.88 56.33 715.05 56.25 C 735.14 56.26 755.12 62.69 771.56 74.22 C 785.61 83.81 796.36 97.37 805.29 111.69 C 825.45 144.22 834.95 182.28 838.42 220.09 C 839.87 233.66 840.16 247.42 838.20 260.95 C 835.73 279.53 829.27 297.87 817.88 312.90 C 807.32 327.27 794.02 340.02 777.87 347.88 C 744.39 364.64 701.94 361.02 671.50 339.34 C 667.03 336.25 663.09 332.50 658.97 328.98 C 650.00 320.85 643.53 310.47 635.48 301.54 C 627.73 317.17 617.99 332.20 604.48 343.46 C 594.34 351.94 581.15 356.35 568.01 356.64 C 479.99 356.55 391.97 356.71 303.95 356.57 C 298.04 356.76 292.06 355.86 286.60 353.53 C 282.25 351.90 278.37 349.27 274.05 347.58 C 273.62 365.68 274.74 383.88 272.36 401.88 C 268.14 435.45 254.02 466.72 238.43 496.40 C 237.29 498.55 236.03 501.60 233.03 501.17 C 159.68 501.17 86.33 501.15 12.98 501.16 C 9.94 501.21 6.90 501.14 3.88 500.76 C 48.86 479.29 91.11 452.51 131.73 423.73 C 148.90 411.43 165.77 398.65 181.72 384.81 C 191.53 375.66 201.50 366.39 208.77 355.02 C 212.29 349.56 214.47 342.76 212.53 336.32 C 208.07 323.73 199.77 312.99 191.12 302.99 C 182.66 293.12 174.07 283.33 164.80 274.21 C 154.68 263.92 143.80 254.41 133.72 244.09 C 152.18 205.52 171.19 167.22 189.64 128.64 C 190.62 126.54 191.63 124.31 191.39 121.92 C 189.48 118.85 186.46 116.71 184.00 114.12 C 170.50 100.81 156.49 88.01 143.16 74.53 C 141.61 73.18 142.55 71.00 143.77 69.79 C 160.34 54.69 174.80 37.45 190.82 21.79 M 729.51 156.76 C 707.64 158.61 688.84 179.00 689.24 201.03 C 690.49 214.22 696.55 227.51 707.51 235.40 C 717.54 243.17 731.13 246.62 743.51 243.34 C 760.55 238.19 774.69 222.97 777.00 205.11 C 777.20 190.41 771.09 175.06 759.04 166.18 C 751.01 159.20 740.08 155.87 729.51 156.76 Z" />
<path fill="#d2201e" opacity="1.00" d=" M 924.08 130.23 C 925.87 126.74 927.84 122.53 932.01 121.47 C 935.29 121.35 937.73 123.96 939.98 126.00 C 961.09 146.49 981.04 168.67 995.59 194.40 C 1003.46 207.50 1007.98 222.24 1011.70 236.96 C 1018.35 264.77 1020.27 293.47 1020.02 321.99 C 1020.75 366.16 1015.16 410.89 999.55 452.41 C 993.57 468.32 986.00 483.62 976.89 497.96 C 975.77 500.87 972.72 501.46 969.94 501.30 C 928.96 500.95 887.99 501.14 847.01 501.24 C 811.57 501.41 776.12 500.95 740.68 500.97 C 778.98 482.06 815.52 459.76 850.58 435.39 C 877.16 416.74 903.86 397.88 927.11 375.09 C 935.75 366.26 945.53 357.10 948.19 344.51 C 949.27 334.56 943.26 325.77 937.91 317.95 C 918.25 290.54 893.19 267.72 869.15 244.28 C 887.01 206.05 905.81 168.27 924.08 130.23 Z" />
</g>
</svg>
